<svg width="81" height="80" viewBox="0 0 81 80" fill="none" xmlns="http://www.w3.org/2000/svg">
<rect x="0.400391" width="80" height="80" rx="40" fill="#F5F5F5"/>
<path d="M46.2502 24.7168H34.5502C30.4002 24.7168 29.4836 26.7835 28.9502 29.3168L27.0669 38.3335H53.7336L51.8502 29.3168C51.3169 26.7835 50.4002 24.7168 46.2502 24.7168Z" stroke="#737373" stroke-width="3.2" stroke-linecap="round" stroke-linejoin="round"/>
<path d="M57.0504 53.0335C57.2338 54.9835 55.6671 56.6668 53.6671 56.6668H50.5338C48.7338 56.6668 48.4838 55.9002 48.1671 54.9502L47.8338 53.9502C47.3671 52.5835 47.0671 51.6668 44.6671 51.6668H36.1338C33.7338 51.6668 33.3838 52.7002 32.9671 53.9502L32.6338 54.9502C32.3171 55.9002 32.0671 56.6668 30.2671 56.6668H27.1338C25.1338 56.6668 23.5671 54.9835 23.7504 53.0335L24.6838 42.8835C24.9171 40.3835 25.4004 38.3335 29.7671 38.3335H51.0338C55.4004 38.3335 55.8838 40.3835 56.1171 42.8835L57.0504 53.0335Z" stroke="#737373" stroke-width="3.2" stroke-linecap="round" stroke-linejoin="round"/>
<path d="M27.0671 33.3335H25.4004" stroke="#737373" stroke-width="3.2" stroke-linecap="round" stroke-linejoin="round"/>
<path d="M55.4006 33.3335H53.7339" stroke="#737373" stroke-width="3.2" stroke-linecap="round" stroke-linejoin="round"/>
<path d="M40.4004 25V28.3333" stroke="#737373" stroke-width="3.2" stroke-linecap="round" stroke-linejoin="round"/>
<path d="M37.9004 28.3335H42.9004" stroke="#737373" stroke-width="3.2" stroke-linecap="round" stroke-linejoin="round"/>
<path d="M30.4004 45H35.4004" stroke="#737373" stroke-width="3.2" stroke-linecap="round" stroke-linejoin="round"/>
<path d="M45.4004 45H50.4004" stroke="#737373" stroke-width="3.2" stroke-linecap="round" stroke-linejoin="round"/>
</svg>
