<svg width="24" height="24" viewBox="0 0 24 24" fill="none" xmlns="http://www.w3.org/2000/svg">
<path d="M20.2129 17.6177C20.1067 17.5482 19.9957 17.4862 19.8809 17.4321L18.7201 9.33529C18.6257 8.72685 18.3161 8.17247 17.8477 7.77288C17.3793 7.37329 16.783 7.15501 16.1673 7.15769H15.0113V5.52729C16.4233 5.40729 17.2929 3.79209 16.6265 2.54569L16.0417 1.38729C15.8617 1.02923 15.5855 0.728371 15.2441 0.518406C14.9028 0.308441 14.5097 0.197667 14.1089 0.198491H9.8913C9.49053 0.197667 9.09745 0.308441 8.75608 0.518406C8.41471 0.728371 8.13854 1.02923 7.9585 1.38729L7.3737 2.54569C6.7033 3.79449 7.5809 5.40409 8.9889 5.52729V7.15769H7.8313C6.5793 7.13769 5.4593 8.10969 5.2801 9.34489L4.1201 17.4321C3.78775 17.5894 3.48964 17.8107 3.24279 18.0832C2.99595 18.3557 2.80519 18.6742 2.68143 19.0205C2.55767 19.3667 2.50332 19.7339 2.52149 20.1012C2.53965 20.4685 2.62998 20.8285 2.7873 21.1609C2.8801 21.3985 3.8241 22.7737 3.9713 23.0169C4.12767 23.2575 4.34183 23.4551 4.59421 23.5916C4.84659 23.7281 5.12916 23.7993 5.4161 23.7985H18.5841C19.8281 23.8793 20.4281 22.3089 21.0273 21.4929C21.2283 21.185 21.3666 20.8405 21.4345 20.4791C21.5023 20.1177 21.4983 19.7465 21.4227 19.3866C21.3471 19.0268 21.2013 18.6853 20.9937 18.3818C20.7862 18.0783 20.5208 17.8187 20.2129 17.6177ZM18.6313 17.1737C18.3721 17.1816 18.1185 17.251 17.8913 17.3762C17.6642 17.5014 17.47 17.6788 17.3249 17.8937C16.8969 18.4369 16.5233 19.4073 15.9833 19.3553H14.6297V16.8281C14.6297 13.7377 15.8081 10.9337 17.5593 9.68329L18.6313 17.1737ZM8.4801 3.94089C8.0521 3.37929 8.8305 2.44169 9.0289 1.92889C9.10896 1.76891 9.23212 1.63448 9.3845 1.54076C9.53688 1.44704 9.71241 1.39777 9.8913 1.39849H14.1089C14.9425 1.34329 15.2233 2.54009 15.5561 3.08729C15.8561 3.65049 15.4105 4.37049 14.7745 4.35769H9.2257C9.07586 4.35934 8.92819 4.32174 8.79738 4.24862C8.66657 4.1755 8.55719 4.0694 8.4801 3.94089ZM13.8113 5.55769V7.15769H10.1889V5.55769H13.8113ZM7.8313 8.35769H16.1689C16.4601 8.36009 16.7425 8.45449 16.9769 8.62729C14.8305 10.0761 13.4297 13.2473 13.4297 16.8281V19.3537H10.5705V16.8281C10.5705 13.2481 9.1697 10.0769 7.0241 8.62809C7.25767 8.4546 7.54036 8.3599 7.8313 8.35769ZM6.4417 9.68249C8.1921 10.9329 9.3705 13.7369 9.3705 16.8273V19.3537H8.0169C7.4785 19.4073 7.1009 18.4337 6.6753 17.8929C6.53016 17.678 6.33602 17.5006 6.10889 17.3754C5.88176 17.2502 5.62813 17.1808 5.3689 17.1729L6.4417 9.68249ZM20.0225 20.8321C20.0265 20.8361 19.0241 22.3577 19.0241 22.3609C18.9767 22.4345 18.9116 22.4951 18.8347 22.537C18.7578 22.5789 18.6717 22.6009 18.5841 22.6009H5.4161C5.32852 22.601 5.24233 22.579 5.16544 22.5371C5.08856 22.4952 5.02345 22.4346 4.9761 22.3609L3.9777 20.8353C3.74608 20.4814 3.66451 20.0499 3.75092 19.6359C3.83733 19.2218 4.08466 18.859 4.4385 18.6273C4.7785 18.4241 5.3849 18.1793 5.6801 18.5625L6.4665 19.7289C6.63757 19.9829 6.86844 20.1909 7.13878 20.3348C7.40913 20.4786 7.71068 20.5538 8.0169 20.5537H15.9833C17.1585 20.6241 17.7641 19.3777 18.3201 18.5585C18.3609 18.4986 18.4156 18.4495 18.4796 18.4155C18.5436 18.3815 18.6149 18.3636 18.6873 18.3633C19.9257 18.3297 20.7241 19.8169 20.0225 20.8321Z" fill="#A3A3A3"/>
<path d="M11.2411 10.9234H12.7611C13.5451 10.9202 13.5459 9.72659 12.7611 9.72339H11.2411C10.4571 9.72659 10.4563 10.9202 11.2411 10.9234Z" fill="#A3A3A3"/>
</svg>
