<svg width="81" height="80" viewBox="0 0 81 80" fill="none" xmlns="http://www.w3.org/2000/svg">
<rect x="0.200195" width="80" height="80" rx="40" fill="#F5F5F5"/>
<path d="M35.2004 40.0002L38.5337 43.3335L46.0337 35.8335M50.0357 28.331C50.3789 29.1611 51.0376 29.8208 51.8671 30.1653L54.7758 31.3701C55.6058 31.714 56.2653 32.3735 56.6092 33.2036C56.953 34.0337 56.953 34.9664 56.6092 35.7965L55.4052 38.7032C55.0612 39.5336 55.0608 40.4673 55.4063 41.2974L56.6082 44.2032C56.7786 44.6143 56.8664 45.055 56.8664 45.5001C56.8665 45.9452 56.7789 46.3859 56.6086 46.7971C56.4383 47.2083 56.1886 47.5819 55.8738 47.8965C55.5591 48.2112 55.1854 48.4608 54.7742 48.631L51.8676 49.8349C51.0376 50.1781 50.3779 50.8369 50.0334 51.6665L48.8286 54.5752C48.4848 55.4053 47.8253 56.0648 46.9952 56.4087C46.1651 56.7525 45.2325 56.7525 44.4024 56.4087L41.4958 55.2047C40.6657 54.8617 39.7334 54.8624 38.9038 55.2066L35.9952 56.4098C35.1656 56.7528 34.2337 56.7525 33.4043 56.4089C32.5749 56.0654 31.9158 55.4066 31.5717 54.5774L30.3666 51.6678C30.0234 50.8378 29.3646 50.178 28.5351 49.8335L25.6265 48.6287C24.7967 48.285 24.1375 47.6259 23.7935 46.7963C23.4495 45.9666 23.4491 45.0344 23.7922 44.2044L24.9961 41.2977C25.3391 40.4676 25.3384 39.5352 24.9942 38.7056L23.792 35.7948C23.6215 35.3837 23.5338 34.943 23.5337 34.4979C23.5336 34.0528 23.6212 33.6121 23.7916 33.2009C23.9619 32.7897 24.2115 32.4161 24.5263 32.1014C24.8411 31.7868 25.2147 31.5372 25.626 31.367L28.5325 30.163C29.3618 29.8201 30.0212 29.1622 30.3659 28.3336L31.5707 25.4248C31.9145 24.5947 32.574 23.9352 33.4041 23.5914C34.2341 23.2475 35.1668 23.2475 35.9969 23.5914L38.9034 24.7954C39.7335 25.1384 40.6659 25.1376 41.4955 24.7934L44.4053 23.5932C45.2353 23.2496 46.1677 23.2497 46.9977 23.5934C47.8276 23.9372 48.487 24.5965 48.8309 25.4264L50.036 28.336L50.0357 28.331Z" stroke="#737373" stroke-width="3.5" stroke-linecap="round" stroke-linejoin="round"/>
</svg>
