<svg width="80" height="80" viewBox="0 0 80 80" fill="none" xmlns="http://www.w3.org/2000/svg">
<rect width="80" height="80" rx="40" fill="#F5F5F5"/>
<path fill-rule="evenodd" clip-rule="evenodd" d="M40.0003 21.6667C50.1255 21.6667 58.3337 29.8749 58.3337 40.0001C58.3337 50.1253 50.1255 58.3334 40.0003 58.3334C29.8751 58.3334 21.667 50.1253 21.667 40.0001C21.667 29.8749 29.8751 21.6667 40.0003 21.6667ZM25.0919 38.3334C25.7803 32.1055 30.2817 27.0267 36.2098 25.4831C33.6655 29.3075 32.1242 33.7281 31.7505 38.3334H25.0919ZM25.0919 41.6667C25.7803 47.8947 30.2817 52.9735 36.2098 54.517C33.6655 50.6927 32.1242 46.2721 31.7505 41.6667H25.0919ZM43.7908 54.517C49.719 52.9735 54.2203 47.8947 54.9088 41.6667H48.2502C47.8765 46.2721 46.3352 50.6927 43.7908 54.517ZM54.9088 38.3334H48.2502C47.8765 33.7281 46.3352 29.3075 43.7908 25.4831C49.719 27.0267 54.2203 32.1055 54.9088 38.3334ZM40.0003 25.9181C42.7831 29.5033 44.4857 33.8115 44.9043 38.3334H35.0963C35.515 33.8115 37.2175 29.5033 40.0003 25.9181ZM40.0003 54.0821C37.2175 50.4969 35.515 46.1887 35.0963 41.6667H44.9043C44.4857 46.1887 42.7831 50.4969 40.0003 54.0821Z" fill="#737373"/>
</svg>
