<svg width="81" height="80" viewBox="0 0 81 80" fill="none" xmlns="http://www.w3.org/2000/svg">
<rect x="0.799805" width="80" height="80" rx="40" fill="#F5F5F5"/>
<path d="M55.7998 50V40C55.7998 31.7157 49.0841 25 40.7998 25C32.5155 25 25.7998 31.7157 25.7998 40V50M29.9665 55C27.6653 55 25.7998 53.1345 25.7998 50.8333V47.5C25.7998 45.1988 27.6653 43.3333 29.9665 43.3333C32.2677 43.3333 34.1331 45.1988 34.1331 47.5V50.8333C34.1331 53.1345 32.2677 55 29.9665 55ZM51.6331 55C49.332 55 47.4665 53.1345 47.4665 50.8333V47.5C47.4665 45.1988 49.332 43.3333 51.6331 43.3333C53.9343 43.3333 55.7998 45.1988 55.7998 47.5V50.8333C55.7998 53.1345 53.9343 55 51.6331 55Z" stroke="#737373" stroke-width="3.5" stroke-linecap="round" stroke-linejoin="round"/>
</svg>
