<svg width="258" height="92" viewBox="0 0 258 92" fill="none" xmlns="http://www.w3.org/2000/svg">
<path d="M225.697 85.5H16.9775L19.375 74.253L228.106 74.2468L225.697 85.5Z" fill="#FFCA06"/>
<path d="M175.658 54.917C173.804 52.9224 174.904 48.9395 175.862 44.4518L179.118 29.191H192.508L194.937 17.8332H181.534L183.913 6.5H171.289L163.015 45.4921C161.78 51.3219 161.298 55.8773 163.837 60.7836C166.198 65.3452 174.255 69.7037 184.463 66.9396L186.719 56.3944C179.798 57.2624 177.017 56.3636 175.658 54.917Z" fill="#211E1F"/>
<path d="M68.7402 6.5L62.7156 34.6576H40.5633L46.5695 6.5H33.8281L20.9446 66.952H33.6798L38.1288 46.0031H60.2933L55.832 66.952H68.456L81.358 6.5H68.7402Z" fill="#211E1F"/>
<path d="M141.487 22.1054C137.069 25.799 134.554 30.5945 132.929 38.1911L126.793 66.9519H139.43L144.521 43.1035C145.757 37.5262 146.647 34.0358 148.748 31.8873C151.646 28.9386 155.835 28.7785 160.871 29.191L163.3 17.8331C154.42 15.5862 146.665 17.7901 141.487 22.1054Z" fill="#211E1F"/>
<path d="M240.106 17.8333H200.671L198.255 29.1911H221.13L192.515 56.0313L190.191 66.952H229.633L232.061 55.6003H209.044L237.808 28.637L240.106 17.8333Z" fill="#211E1F"/>
<path d="M107.001 16.9652C102.738 16.9652 96.8986 18.2764 91.1643 22.7642C78.2314 32.8415 71.8113 67.8384 99.5803 67.8384C106.779 67.8384 114.787 65.573 120.342 61.3931L115.319 52.9409C111.117 56.1605 89.9532 63.166 92.1777 46.0708H125.267C125.267 46.0708 129.487 32.3675 123.413 24.1062C118.254 17.0576 108.738 16.9652 107.001 16.9652ZM115.226 35.6733H94.9645C95.6751 32.9585 99.9758 26.2731 107.941 27.0057C116.561 27.7936 115.226 35.6733 115.226 35.6733Z" fill="#211E1F"/>
<path d="M238.191 60.6729C237.195 60.718 236.241 61.0848 235.473 61.7178C234.705 62.3509 234.164 63.2157 233.933 64.1818C233.879 64.4243 233.852 64.6721 233.853 64.9205C233.844 65.2896 233.912 65.6565 234.052 65.9982C234.192 66.34 234.401 66.6492 234.667 66.9065C234.933 67.1637 235.249 67.3634 235.596 67.4931C235.943 67.6228 236.313 67.6796 236.683 67.6599C237.679 67.6131 238.633 67.2459 239.402 66.6132C240.171 65.9805 240.713 65.1166 240.947 64.151C240.995 63.9118 241.02 63.6686 241.021 63.4246C241.034 63.054 240.968 62.6849 240.83 62.3408C240.691 61.9967 240.482 61.6853 240.216 61.4263C239.949 61.1673 239.632 60.9665 239.283 60.8368C238.934 60.7071 238.562 60.6512 238.191 60.6729ZM240.446 64.0525C240.235 64.909 239.754 65.6754 239.073 66.2394C238.393 66.8033 237.548 67.1351 236.665 67.1859C236.357 67.2078 236.048 67.1648 235.758 67.0597C235.468 66.9546 235.204 66.7898 234.982 66.576C234.761 66.3622 234.587 66.1042 234.472 65.819C234.358 65.5337 234.304 65.2276 234.317 64.9205C234.317 64.7135 234.34 64.5072 234.384 64.3049C234.594 63.4525 235.071 62.6892 235.747 62.1265C236.423 61.5638 237.262 61.2313 238.141 61.1777C238.452 61.1522 238.765 61.1927 239.059 61.2964C239.353 61.4001 239.621 61.5647 239.846 61.7794C240.072 61.994 240.249 62.2538 240.366 62.5417C240.483 62.8295 240.538 63.1388 240.527 63.4492C240.511 63.6431 240.475 63.8348 240.422 64.0217L240.446 64.0525Z" fill="#6F7072"/>
<path d="M237.882 62.4642H236.386L235.67 65.8131H236.411L236.64 64.7296H237.227L237.715 65.8131H238.586L238.018 64.6127C238.256 64.5393 238.47 64.4034 238.637 64.2193C238.805 64.0352 238.92 63.8096 238.969 63.5662C239.111 62.8705 238.685 62.4642 237.882 62.4642ZM238.203 63.6092C238.172 63.7617 238.083 63.8966 237.956 63.9868C237.829 64.077 237.672 64.1159 237.517 64.0956H236.782L236.992 63.1168H237.715C238.08 63.1352 238.271 63.283 238.191 63.6092H238.203Z" fill="#6F7072"/>
</svg>
