<svg width="76" height="75" viewBox="0 0 76 75" fill="none" xmlns="http://www.w3.org/2000/svg">
<path d="M69.5964 17.0015H51.0997C49.5493 16.9795 48.0455 17.5314 46.8774 18.5512C45.7092 19.571 44.9591 20.9867 44.7712 22.5262H26.8005C25.195 22.5311 23.6094 22.8818 22.1516 23.5544C20.6937 24.227 19.3978 25.2058 18.3519 26.4242L10.8963 36.9636H9.04979C6.65007 36.965 4.34905 37.9192 2.65219 39.6165C0.955336 41.3138 0.00142206 43.6154 0 46.0158L0 57.5539C0.00141934 59.4407 0.751011 61.2499 2.08432 62.5846C3.41764 63.9192 5.22579 64.6704 7.11208 64.6732H11.5457C12.005 67.5531 13.4756 70.1748 15.6936 72.0675C17.9116 73.9603 20.7315 75 23.647 75C26.5625 75 29.3824 73.9603 31.6004 72.0675C33.8184 70.1748 35.2891 67.5531 35.7483 64.6732H50.5468V69.0973C50.5469 70.2217 50.8828 71.3204 51.5115 72.2525C52.1401 73.1846 53.0328 73.9076 54.075 74.3288C55.1173 74.7499 56.2615 74.85 57.3611 74.6163C58.4606 74.3825 59.4652 73.8255 60.2461 73.0167C60.9953 73.8931 61.9952 74.5186 63.111 74.8088C64.2267 75.0991 65.4046 75.04 66.4858 74.6398C67.5669 74.2395 68.4994 73.5172 69.1573 72.5703C69.8153 71.6234 70.1671 70.4975 70.1654 69.3443V46.7299C73.2088 45.946 76 42.9286 76 40.0401V23.1168C75.9592 21.4573 75.2622 19.8816 74.0618 18.7353C72.8615 17.5889 71.2557 16.9654 69.5964 17.0015ZM23.6497 72.0449C21.798 72.046 19.9876 71.4977 18.4475 70.4695C16.9073 69.4412 15.7067 67.9792 14.9973 66.2683C14.288 64.5575 14.1018 62.6746 14.4624 60.8579C14.823 59.0411 15.7142 57.3722 17.0231 56.0621C18.3321 54.7521 20.0001 53.8597 21.8161 53.498C23.6321 53.1363 25.5146 53.3214 27.2254 54.03C28.9363 54.7385 30.3986 55.9387 31.4274 57.4786C32.4563 59.0186 33.0054 60.8291 33.0054 62.6813C33.0026 65.1629 32.0162 67.5421 30.2624 69.2974C28.5086 71.0526 26.1306 72.0407 23.6497 72.0449ZM35.8556 61.7203C35.6315 58.6354 34.2481 55.7498 31.9838 53.6435C29.7194 51.5372 26.7419 50.3663 23.6497 50.3663C20.5575 50.3663 17.58 51.5372 15.3156 53.6435C13.0512 55.7498 11.6679 58.6354 11.4437 61.7203H7.11208C6.0064 61.7188 4.94641 61.2789 4.16457 60.4968C3.38273 59.7148 2.94287 58.6545 2.94145 57.5485V46.0158C2.94429 44.3962 3.58876 42.8438 4.73368 41.6985C5.8786 40.5533 7.43063 39.9087 9.04979 39.9058H11.6585C11.8978 39.9099 12.1345 39.8552 12.3478 39.7467C12.5611 39.6381 12.7446 39.4789 12.8823 39.283L20.6599 28.2389C21.4281 27.3671 22.3729 26.6687 23.4316 26.1901C24.4903 25.7115 25.6387 25.4637 26.8005 25.4631H44.7068V36.5233H27.1333L29.2803 33.4093C29.5017 33.0853 29.5853 32.6867 29.5129 32.301C29.4404 31.9154 29.2177 31.5744 28.8939 31.3529C28.7335 31.2433 28.5531 31.1663 28.363 31.1264C28.1729 31.0865 27.9768 31.0844 27.7859 31.1203C27.4004 31.1928 27.0594 31.4156 26.8381 31.7395L23.129 37.1622C22.9775 37.3832 22.8892 37.6414 22.8736 37.9089C22.858 38.1764 22.9158 38.443 23.0406 38.6801C23.1655 38.9172 23.3527 39.1156 23.5821 39.2541C23.8114 39.3925 24.0742 39.4656 24.3421 39.4656H44.739V40.0401C44.739 42.9286 47.5356 45.946 50.579 46.7299V61.7203H35.8556ZM73.0532 40.0347C73.0532 41.3394 71.6683 42.9179 70.1654 43.6212V27.6483C70.1427 27.2728 69.9776 26.9201 69.7038 26.6623C69.43 26.4044 69.0681 26.2608 68.692 26.2608C68.3159 26.2608 67.954 26.4044 67.6802 26.6623C67.4064 26.9201 67.2413 27.2728 67.2186 27.6483V69.3443C67.2186 70.0563 66.9358 70.7391 66.4325 71.2425C65.9292 71.746 65.2466 72.0288 64.5348 72.0288C63.823 72.0288 63.1404 71.746 62.6371 71.2425C62.1337 70.7391 61.851 70.0563 61.851 69.3443V49.9084C61.8283 49.5329 61.6632 49.1802 61.3894 48.9223C61.1156 48.6645 60.7537 48.5209 60.3776 48.5209C60.0015 48.5209 59.6396 48.6645 59.3658 48.9223C59.0919 49.1802 58.9268 49.5329 58.9042 49.9084V69.0866C58.9042 69.7986 58.6214 70.4814 58.1181 70.9848C57.6148 71.4883 56.9321 71.7711 56.2204 71.7711C55.5086 71.7711 54.8259 71.4883 54.3226 70.9848C53.8193 70.4814 53.5366 69.7986 53.5366 69.0866V27.6483C53.5366 27.2581 53.3816 26.8839 53.1058 26.6081C52.83 26.3322 52.4559 26.1772 52.0658 26.1772C51.6758 26.1772 51.3017 26.3322 51.0259 26.6081C50.7501 26.8839 50.5951 27.2581 50.5951 27.6483V43.6266C49.0922 42.9232 47.702 41.3447 47.702 40.0401V23.1168C47.7424 22.2409 48.1273 21.4164 48.7727 20.8231C49.4182 20.2297 50.272 19.9156 51.148 19.9491H69.6448C70.5222 19.9141 71.3779 20.2274 72.0254 20.8208C72.6729 21.4141 73.0597 22.2394 73.1015 23.1168L73.0532 40.0347Z" fill="#FFCC00"/>
<path d="M60 16C61.5822 16 63.129 15.5308 64.4446 14.6518C65.7602 13.7727 66.7855 12.5233 67.391 11.0615C67.9965 9.59966 68.155 7.99113 67.8463 6.43928C67.5376 4.88743 66.7757 3.46197 65.6569 2.34315C64.538 1.22433 63.1126 0.462403 61.5607 0.153721C60.0089 -0.15496 58.4003 0.00346625 56.9385 0.608967C55.4767 1.21447 54.2273 2.23985 53.3482 3.55544C52.4692 4.87103 52 6.41775 52 8C52.0014 10.1213 52.8447 12.1553 54.3447 13.6553C55.8447 15.1553 57.8787 15.9986 60 16ZM60 2.94228C60.9999 2.94441 61.9767 3.24284 62.807 3.79988C63.6373 4.35692 64.2839 5.14756 64.6651 6.07193C65.0462 6.99629 65.1448 8.01289 64.9485 8.99328C64.7521 9.97367 64.2696 10.8739 63.5618 11.5801C62.854 12.2864 61.9528 12.767 60.972 12.9613C59.9912 13.1556 58.9748 13.0548 58.0513 12.6717C57.1277 12.2886 56.3385 11.6403 55.7832 10.8088C55.2279 9.9773 54.9315 8.99987 54.9315 8C54.9344 6.65763 55.4696 5.3712 56.4198 4.423C57.3701 3.4748 58.6576 2.94228 60 2.94228Z" fill="#FFCC00"/>
</svg>
