<svg width="67" height="67" viewBox="0 0 67 67" fill="none" xmlns="http://www.w3.org/2000/svg">
<g clip-path="url(#clip0_504_3353)">
<path d="M60.2782 0H6.72184C4.93947 0.00120791 3.23044 0.711186 1.97011 1.974C0.709785 3.23682 0.00120553 4.94922 0 6.73511L0 60.2649C0.00120553 62.0508 0.709785 63.7632 1.97011 65.026C3.23044 66.2888 4.93947 66.9988 6.72184 67H60.2782C62.0605 66.9988 63.7696 66.2888 65.0299 65.026C66.2902 63.7632 66.9988 62.0508 67 60.2649V6.73511C66.9988 4.94922 66.2902 3.23682 65.0299 1.974C63.7696 0.711186 62.0605 0.00120791 60.2782 0ZM64.506 60.2649C64.5048 61.388 64.059 62.4648 63.2664 63.259C62.4738 64.0532 61.3991 64.4999 60.2782 64.5011H6.72184C5.60091 64.4999 4.52623 64.0532 3.73361 63.259C2.94098 62.4648 2.49516 61.388 2.49395 60.2649V6.73511C2.49516 5.61196 2.94098 4.53516 3.73361 3.74097C4.52623 2.94679 5.60091 2.50008 6.72184 2.49888H60.2782C61.3991 2.50008 62.4738 2.94679 63.2664 3.74097C64.059 4.53516 64.5048 5.61196 64.506 6.73511V60.2649Z" fill="#FFCC00"/>
<path d="M33.5955 43.3974H33.8094H33.9141C34.0142 43.3974 34.1143 43.3974 34.219 43.3655C38.2875 43.2104 42.1377 41.4819 44.9614 38.543C47.7851 35.6041 49.3625 31.6833 49.3625 27.6038C49.3625 23.5244 47.7851 19.6036 44.9614 16.6647C42.1377 13.7257 38.2875 11.9973 34.219 11.8422C34.1143 11.8422 34.0142 11.8103 33.9141 11.8103H33.8094H33.5955C29.4614 11.8807 25.5204 13.5756 22.6217 16.5298C19.723 19.484 18.0986 23.461 18.0986 27.6038C18.0986 31.7467 19.723 35.7237 22.6217 38.6779C25.5204 41.6321 29.4614 43.327 33.5955 43.3974ZM21.9221 33.9126H27.2286C27.5981 36.1334 28.3562 38.2715 29.4677 40.2282C26.241 39.1637 23.5419 36.9045 21.9221 33.9126ZM33.8321 14.3046C33.9141 14.3046 33.9869 14.3046 34.0642 14.3046C35.4296 14.4779 37.1498 16.995 38.0418 21.2632H29.7817C30.692 16.9494 32.4395 14.4141 33.8321 14.3229V14.3046ZM38.4423 23.794C38.5959 25.0574 38.6764 26.3288 38.6835 27.6016C38.6843 28.8739 38.6113 30.1453 38.4651 31.4092H29.3813C29.0961 28.8788 29.0961 26.3243 29.3813 23.794H38.4423ZM46.8753 27.6016C46.8753 28.8917 46.6852 30.1747 46.311 31.4092H40.959C41.0923 30.1443 41.1591 28.8734 41.1593 27.6016C41.1589 26.3297 41.092 25.0588 40.959 23.794H46.3065C46.6815 25.0283 46.8732 26.3113 46.8753 27.6016ZM34.0642 40.8757H33.8321C32.4395 40.7845 30.692 38.2492 29.7817 33.9035H38.0418C37.1498 38.1808 35.4478 40.6979 34.0642 40.8757ZM26.8737 31.4092H20.8891C20.1438 28.9257 20.1438 26.2775 20.8891 23.794H26.8737C26.6006 26.325 26.6006 28.8781 26.8737 31.4092ZM38.5424 39.9272C39.5468 38.0468 40.2399 36.0155 40.595 33.9126H45.2734C43.7944 36.6395 41.4148 38.7659 38.5424 39.9272ZM45.2688 21.2951H40.595C40.2399 19.1922 39.5468 17.1609 38.5424 15.2805C41.4145 16.4404 43.7932 18.5673 45.2688 21.2951ZM29.4677 14.9795C28.3567 16.9365 27.5987 19.0744 27.2286 21.2951H21.9221C23.5419 18.3031 26.241 16.044 29.4677 14.9795Z" fill="#FFCC00"/>
<path d="M52.8779 51.8335H14.5038C14.1731 51.8335 13.8559 51.9651 13.6221 52.1994C13.3882 52.4338 13.2568 52.7516 13.2568 53.0829C13.2568 53.4143 13.3882 53.7321 13.6221 53.9664C13.8559 54.2007 14.1731 54.3324 14.5038 54.3324H52.8779C53.2087 54.3324 53.5258 54.2007 53.7597 53.9664C53.9935 53.7321 54.1249 53.4143 54.1249 53.0829C54.1249 52.7516 53.9935 52.4338 53.7597 52.1994C53.5258 51.9651 53.2087 51.8335 52.8779 51.8335Z" fill="#FFCC00"/>
</g>
<defs>
<clipPath id="clip0_504_3353">
<rect width="67" height="67" fill="white"/>
</clipPath>
</defs>
</svg>
