<svg xmlns="http://www.w3.org/2000/svg" width="73" height="52" viewBox="0 0 73 52" fill="none">
<path d="M65.848 0H6.85199C5.03519 0.00149593 3.29323 0.72388 2.00855 2.00855C0.72388 3.29323 0.00149593 5.03519 0 6.85199L0 44.6255C0.00448419 46.4403 0.728187 48.1794 2.01254 49.4616C3.29689 50.7439 5.03714 51.4647 6.85199 51.4662H65.848C67.6629 51.4647 69.4031 50.7439 70.6875 49.4616C71.9718 48.1794 72.6955 46.4403 72.7 44.6255V6.85199C72.6985 5.03519 71.9761 3.29323 70.6914 2.00855C69.4068 0.72388 67.6648 0.00149593 65.848 0ZM9.95883 37.6266V28.0237C9.96032 26.9375 10.3921 25.8961 11.1596 25.1275C11.9272 24.3588 12.968 23.9256 14.0542 23.9226H23.6572C24.7444 23.9241 25.7866 24.3567 26.5554 25.1255C27.3241 25.8942 27.7567 26.9365 27.7582 28.0237V37.6266C27.7567 38.7133 27.324 39.755 26.555 40.5228C25.7861 41.2907 24.7438 41.722 23.6572 41.722H14.0542C12.9685 41.7205 11.9277 41.2886 11.16 40.5208C10.3923 39.7531 9.96032 38.7123 9.95883 37.6266ZM23.6346 21.1999H14.0316C12.2197 21.2089 10.485 21.9346 9.20641 23.2184C7.92784 24.5023 7.20933 26.24 7.20786 28.0519V37.6549C7.22558 38.01 7.27091 38.3631 7.34343 38.7112H2.75661V12.6533H12.7493C12.7153 12.8799 12.6927 13.108 12.6815 13.3368C12.7793 14.9934 13.5063 16.5502 14.7138 17.6885C15.9213 18.8269 17.5181 19.4609 19.1777 19.4609C20.8372 19.4609 22.434 18.8269 23.6415 17.6885C24.8491 16.5502 25.576 14.9934 25.6738 13.3368C25.6627 13.108 25.64 12.8799 25.606 12.6533H69.9208V38.7112H30.3792C30.4494 38.3535 30.491 37.9909 30.5035 37.6266V28.0237C30.4945 26.2088 29.7665 24.4716 28.479 23.1925C27.1915 21.9134 25.4494 21.1969 23.6346 21.1999ZM22.9398 13.3368C22.9442 14.0817 22.7271 14.811 22.3161 15.4322C21.9051 16.0534 21.3186 16.5384 20.6313 16.8255C19.944 17.1126 19.1868 17.1889 18.4561 17.0447C17.7253 16.9005 17.0539 16.5422 16.5272 16.0155C16.0005 15.4888 15.6422 14.8174 15.498 14.0867C15.3538 13.3559 15.4301 12.5987 15.7172 11.9114C16.0043 11.2241 16.4893 10.6376 17.1105 10.2266C17.7317 9.81557 18.461 9.59848 19.2059 9.60295C20.1944 9.60888 21.1406 10.0042 21.8396 10.7031C22.5385 11.4021 22.9338 12.3484 22.9398 13.3368ZM6.85199 2.75661H65.848C66.9337 2.75811 67.9745 3.19006 68.7422 3.95777C69.5099 4.72548 69.9419 5.76629 69.9434 6.85199V9.89669H24.6909C24.1113 8.95884 23.3015 8.18472 22.3386 7.64784C21.3757 7.11096 20.2915 6.82914 19.189 6.82914C18.0865 6.82914 17.0023 7.11096 16.0393 7.64784C15.0764 8.18472 14.2666 8.95884 13.687 9.89669H2.75661V6.85199C2.75811 5.76629 3.19006 4.72548 3.95777 3.95777C4.72548 3.19006 5.76629 2.75811 6.85199 2.75661ZM65.848 48.7096H6.85199C5.76824 48.7081 4.72913 48.2777 3.96175 47.5124C3.19436 46.7471 2.76109 45.7092 2.75661 44.6255V41.4678H8.40541C9.03076 42.3916 9.87219 43.1487 10.8566 43.6734C11.841 44.1981 12.9387 44.4745 14.0542 44.4786H23.6572C24.7727 44.4745 25.8703 44.1981 26.8547 43.6734C27.8392 43.1487 28.6806 42.3916 29.306 41.4678H69.9434V44.6255C69.9389 45.7092 69.5056 46.7471 68.7383 47.5124C67.9709 48.2777 66.9318 48.7081 65.848 48.7096Z" fill="#FFCC00"/>
<path d="M37.0788 31.3735C37.2067 31.5026 37.3589 31.605 37.5266 31.6748C37.6944 31.7447 37.8743 31.7805 38.056 31.7802C38.4206 31.7768 38.7693 31.6308 39.0276 31.3735L43.7274 26.6737C43.9858 26.4152 44.1309 26.0647 44.1309 25.6993C44.1309 25.3338 43.9858 24.9833 43.7274 24.7249L39.0276 20.0251C38.7653 19.7906 38.4232 19.6652 38.0715 19.6748C37.7197 19.6844 37.385 19.8282 37.1358 20.0766C36.8867 20.325 36.7419 20.6594 36.7313 21.0111C36.7207 21.3628 36.845 21.7052 37.0788 21.9683L40.807 25.6965L37.0788 29.4247C36.8204 29.6831 36.6753 30.0336 36.6753 30.3991C36.6753 30.7645 36.8204 31.115 37.0788 31.3735Z" fill="#FFCC00"/>
<path d="M46.6075 30.0521L46.5692 29.9946C48.4854 28.5957 49.8651 27.5226 50.7849 26.7753C51.6856 26.0471 52.3371 25.3956 52.7587 24.8399C53.1611 24.3225 53.3527 23.7859 53.3527 23.2494C53.3527 22.732 53.1419 22.3296 52.7395 22.0421C52.3371 21.7547 51.8389 21.6014 51.264 21.6014C49.9418 21.6014 48.8112 22.0996 47.8722 23.0769L46.3201 21.2756C46.9141 20.5858 47.6423 20.0684 48.5429 19.7234C49.4244 19.3785 50.325 19.2061 51.264 19.2061C52.1455 19.2061 52.9695 19.3785 53.736 19.7043C54.4833 20.03 55.0774 20.5091 55.4989 21.1223C55.9205 21.7355 56.1313 22.4637 56.1313 23.2877C56.1313 24.3416 55.7097 25.3764 54.8666 26.392C54.0426 27.3885 52.7204 28.5191 50.8999 29.803H56.2271V32.1983H46.6075V30.0521Z" fill="#FFCC00"/>
<path d="M58.2874 30.0521L58.2491 29.9946C60.1654 28.5957 61.5451 27.5226 62.4649 26.7753C63.3655 26.0471 64.0171 25.3956 64.4386 24.8399C64.841 24.3225 65.0327 23.7859 65.0327 23.2494C65.0327 22.732 64.8219 22.3296 64.4195 22.0421C64.0171 21.7547 63.5188 21.6014 62.9439 21.6014C61.6217 21.6014 60.4911 22.0996 59.5522 23.0769L58 21.2756C58.594 20.5858 59.3222 20.0684 60.2229 19.7234C61.1043 19.3785 62.005 19.2061 62.9439 19.2061C63.8254 19.2061 64.6494 19.3785 65.4159 19.7043C66.1633 20.03 66.7573 20.5091 67.1789 21.1223C67.6005 21.7355 67.8112 22.4637 67.8112 23.2877C67.8112 24.3416 67.3897 25.3764 66.5465 26.392C65.7225 27.3885 64.4003 28.5191 62.5799 29.803H67.9071V32.1983H58.2874V30.0521Z" fill="#FFCC00"/>
</svg>

