<svg width="24" height="24" viewBox="0 0 24 24" fill="none" xmlns="http://www.w3.org/2000/svg">
<g id="Frame">
<g id="Group">
<path id="Vector" fill-rule="evenodd" clip-rule="evenodd" d="M4.00007 2.25C3.28357 2.26932 2.6029 2.56753 2.10294 3.08115C1.60299 3.59477 1.32324 4.28323 1.32324 5C1.32324 5.71677 1.60299 6.40523 2.10294 6.91885C2.6029 7.43247 3.28357 7.73068 4.00007 7.75C4.71658 7.73068 5.39725 7.43247 5.8972 6.91885C6.39716 6.40523 6.6769 5.71677 6.6769 5C6.6769 4.28323 6.39716 3.59477 5.8972 3.08115C5.39725 2.56753 4.71658 2.26932 4.00007 2.25ZM4.00007 3.75C4.33159 3.75 4.64954 3.8817 4.88396 4.11612C5.11838 4.35054 5.25007 4.66848 5.25007 5C5.25007 5.33152 5.11838 5.64946 4.88396 5.88388C4.64954 6.1183 4.33159 6.25 4.00007 6.25C3.66855 6.25 3.35061 6.1183 3.11619 5.88388C2.88177 5.64946 2.75007 5.33152 2.75007 5C2.75007 4.66848 2.88177 4.35054 3.11619 4.11612C3.35061 3.8817 3.66855 3.75 4.00007 3.75ZM4.00007 16.25C3.28357 16.2693 2.6029 16.5675 2.10294 17.0812C1.60299 17.5948 1.32324 18.2832 1.32324 19C1.32324 19.7168 1.60299 20.4052 2.10294 20.9188C2.6029 21.4325 3.28357 21.7307 4.00007 21.75C4.71658 21.7307 5.39725 21.4325 5.8972 20.9188C6.39716 20.4052 6.6769 19.7168 6.6769 19C6.6769 18.2832 6.39716 17.5948 5.8972 17.0812C5.39725 16.5675 4.71658 16.2693 4.00007 16.25ZM4.00007 17.75C4.16423 17.75 4.32677 17.7823 4.47843 17.8451C4.63008 17.908 4.76788 18 4.88396 18.1161C5.00003 18.2322 5.0921 18.37 5.15492 18.5216C5.21774 18.6733 5.25007 18.8358 5.25007 19C5.25007 19.1642 5.21774 19.3267 5.15492 19.4784C5.0921 19.63 5.00003 19.7678 4.88396 19.8839C4.76788 20 4.63008 20.092 4.47843 20.1549C4.32677 20.2177 4.16423 20.25 4.00007 20.25C3.66855 20.25 3.35061 20.1183 3.11619 19.8839C2.88177 19.6495 2.75007 19.3315 2.75007 19C2.75007 18.6685 2.88177 18.3505 3.11619 18.1161C3.35061 17.8817 3.66855 17.75 4.00007 17.75ZM12.0001 2.25C11.2836 2.26932 10.6029 2.56753 10.1029 3.08115C9.60299 3.59477 9.32324 4.28323 9.32324 5C9.32324 5.71677 9.60299 6.40523 10.1029 6.91885C10.6029 7.43247 11.2836 7.73068 12.0001 7.75C12.7166 7.73068 13.3973 7.43247 13.8972 6.91885C14.3972 6.40523 14.6769 5.71677 14.6769 5C14.6769 4.28323 14.3972 3.59477 13.8972 3.08115C13.3973 2.56753 12.7166 2.26932 12.0001 2.25ZM12.0001 3.75C12.3316 3.75 12.6495 3.8817 12.884 4.11612C13.1184 4.35054 13.2501 4.66848 13.2501 5C13.2501 5.33152 13.1184 5.64946 12.884 5.88388C12.6495 6.1183 12.3316 6.25 12.0001 6.25C11.6686 6.25 11.3506 6.1183 11.1162 5.88388C10.8818 5.64946 10.7501 5.33152 10.7501 5C10.7501 4.66848 10.8818 4.35054 11.1162 4.11612C11.3506 3.8817 11.6686 3.75 12.0001 3.75ZM12.0001 16.25C11.2836 16.2693 10.6029 16.5675 10.1029 17.0812C9.60299 17.5948 9.32324 18.2832 9.32324 19C9.32324 19.7168 9.60299 20.4052 10.1029 20.9188C10.6029 21.4325 11.2836 21.7307 12.0001 21.75C12.7166 21.7307 13.3973 21.4325 13.8972 20.9188C14.3972 20.4052 14.6769 19.7168 14.6769 19C14.6769 18.2832 14.3972 17.5948 13.8972 17.0812C13.3973 16.5675 12.7166 16.2693 12.0001 16.25ZM12.0001 17.75C12.1642 17.75 12.3268 17.7823 12.4784 17.8451C12.6301 17.908 12.7679 18 12.884 18.1161C13 18.2322 13.0921 18.37 13.1549 18.5216C13.2177 18.6733 13.2501 18.8358 13.2501 19C13.2501 19.1642 13.2177 19.3267 13.1549 19.4784C13.0921 19.63 13 19.7678 12.884 19.8839C12.7679 20 12.6301 20.092 12.4784 20.1549C12.3268 20.2177 12.1642 20.25 12.0001 20.25C11.6686 20.25 11.3506 20.1183 11.1162 19.8839C10.8818 19.6495 10.7501 19.3315 10.7501 19C10.7501 18.6685 10.8818 18.3505 11.1162 18.1161C11.3506 17.8817 11.6686 17.75 12.0001 17.75ZM20.0001 2.25C19.2836 2.26932 18.6029 2.56753 18.1029 3.08115C17.603 3.59477 17.3232 4.28323 17.3232 5C17.3232 5.71677 17.603 6.40523 18.1029 6.91885C18.6029 7.43247 19.2836 7.73068 20.0001 7.75C20.7166 7.73068 21.3973 7.43247 21.8972 6.91885C22.3972 6.40523 22.6769 5.71677 22.6769 5C22.6769 4.28323 22.3972 3.59477 21.8972 3.08115C21.3973 2.56753 20.7166 2.26932 20.0001 2.25ZM20.0001 3.75C20.3316 3.75 20.6495 3.8817 20.884 4.11612C21.1184 4.35054 21.2501 4.66848 21.2501 5C21.2501 5.33152 21.1184 5.64946 20.884 5.88388C20.6495 6.1183 20.3316 6.25 20.0001 6.25C19.6686 6.25 19.3506 6.1183 19.1162 5.88388C18.8818 5.64946 18.7501 5.33152 18.7501 5C18.7501 4.66848 18.8818 4.35054 19.1162 4.11612C19.3506 3.8817 19.6686 3.75 20.0001 3.75ZM20.0001 16.25C19.2836 16.2693 18.6029 16.5675 18.1029 17.0812C17.603 17.5948 17.3232 18.2832 17.3232 19C17.3232 19.7168 17.603 20.4052 18.1029 20.9188C18.6029 21.4325 19.2836 21.7307 20.0001 21.75C20.7166 21.7307 21.3973 21.4325 21.8972 20.9188C22.3972 20.4052 22.6769 19.7168 22.6769 19C22.6769 18.2832 22.3972 17.5948 21.8972 17.0812C21.3973 16.5675 20.7166 16.2693 20.0001 16.25ZM20.0001 17.75C20.1642 17.75 20.3268 17.7823 20.4784 17.8451C20.6301 17.908 20.7679 18 20.884 18.1161C21 18.2322 21.0921 18.37 21.1549 18.5216C21.2177 18.6733 21.2501 18.8358 21.2501 19C21.2501 19.1642 21.2177 19.3267 21.1549 19.4784C21.0921 19.63 21 19.7678 20.884 19.8839C20.7679 20 20.6301 20.092 20.4784 20.1549C20.3268 20.2177 20.1642 20.25 20.0001 20.25C19.6686 20.25 19.3506 20.1183 19.1162 19.8839C18.8818 19.6495 18.7501 19.3315 18.7501 19C18.7501 18.6685 18.8818 18.3505 19.1162 18.1161C19.3506 17.8817 19.6686 17.75 20.0001 17.75Z" fill="#A3A3A3"/>
<path id="Vector_2" fill-rule="evenodd" clip-rule="evenodd" d="M3.25 7V17C3.25 17.1989 3.32902 17.3897 3.46967 17.5303C3.61032 17.671 3.80109 17.75 4 17.75C4.19891 17.75 4.38968 17.671 4.53033 17.5303C4.67098 17.3897 4.75 17.1989 4.75 17V7C4.75 6.80109 4.67098 6.61032 4.53033 6.46967C4.38968 6.32902 4.19891 6.25 4 6.25C3.80109 6.25 3.61032 6.32902 3.46967 6.46967C3.32902 6.61032 3.25 6.80109 3.25 7ZM11.25 7V17C11.25 17.1989 11.329 17.3897 11.4697 17.5303C11.6103 17.671 11.8011 17.75 12 17.75C12.1989 17.75 12.3897 17.671 12.5303 17.5303C12.671 17.3897 12.75 17.1989 12.75 17V7C12.75 6.80109 12.671 6.61032 12.5303 6.46967C12.3897 6.32902 12.1989 6.25 12 6.25C11.8011 6.25 11.6103 6.32902 11.4697 6.46967C11.329 6.61032 11.25 6.80109 11.25 7Z" fill="#A3A3A3"/>
<path id="Vector_3" fill-rule="evenodd" clip-rule="evenodd" d="M19.25 7V11C19.25 11.0663 19.2237 11.1299 19.1768 11.1768C19.1299 11.2237 19.0663 11.25 19 11.25H4C3.80109 11.25 3.61032 11.329 3.46967 11.4697C3.32902 11.6103 3.25 11.8011 3.25 12C3.25 12.1989 3.32902 12.3897 3.46967 12.5303C3.61032 12.671 3.80109 12.75 4 12.75H19C19.4641 12.75 19.9092 12.5656 20.2374 12.2374C20.5656 11.9092 20.75 11.4641 20.75 11V7C20.75 6.80109 20.671 6.61032 20.5303 6.46967C20.3897 6.32902 20.1989 6.25 20 6.25C19.8011 6.25 19.6103 6.32902 19.4697 6.46967C19.329 6.61032 19.25 6.80109 19.25 7Z" fill="#A3A3A3"/>
</g>
</g>
</svg>
